<svg width="20" height="20" viewBox="0 0 20 20" fill="none" xmlns="http://www.w3.org/2000/svg">
<path fill-rule="evenodd" clip-rule="evenodd" d="M4.55388 12.887C5.33529 12.1056 6.39509 11.6666 7.50016 11.6666H12.5002C13.6052 11.6666 14.665 12.1056 15.4464 12.887C16.2278 13.6684 16.6668 14.7282 16.6668 15.8333V17.5C16.6668 17.9602 16.2937 18.3333 15.8335 18.3333C15.3733 18.3333 15.0002 17.9602 15.0002 17.5V15.8333C15.0002 15.1703 14.7368 14.5344 14.2679 14.0655C13.7991 13.5967 13.1632 13.3333 12.5002 13.3333H7.50016C6.83712 13.3333 6.20124 13.5967 5.7324 14.0655C5.26355 14.5344 5.00016 15.1703 5.00016 15.8333V17.5C5.00016 17.9602 4.62707 18.3333 4.16683 18.3333C3.70659 18.3333 3.3335 17.9602 3.3335 17.5V15.8333C3.3335 14.7282 3.77248 13.6684 4.55388 12.887Z" fill="white"/>
<path fill-rule="evenodd" clip-rule="evenodd" d="M10.0002 3.33329C8.61945 3.33329 7.50016 4.45258 7.50016 5.83329C7.50016 7.214 8.61945 8.33329 10.0002 8.33329C11.3809 8.33329 12.5002 7.214 12.5002 5.83329C12.5002 4.45258 11.3809 3.33329 10.0002 3.33329ZM5.8335 5.83329C5.8335 3.53211 7.69898 1.66663 10.0002 1.66663C12.3013 1.66663 14.1668 3.53211 14.1668 5.83329C14.1668 8.13448 12.3013 9.99996 10.0002 9.99996C7.69898 9.99996 5.8335 8.13448 5.8335 5.83329Z" fill="white"/>
</svg>
